<?xml version="1.0" encoding="UTF-8"?><svg xmlns="http://www.w3.org/2000/svg" xmlns:xlink="http://www.w3.org/1999/xlink" fill-opacity="1" color-rendering="auto" color-interpolation="auto" text-rendering="auto" stroke="black" stroke-linecap="square" width="1304" stroke-miterlimit="10" shape-rendering="auto" stroke-opacity="1" fill="black" stroke-dasharray="none" font-weight="normal" stroke-width="1" height="585" font-family="'Dialog'" font-style="normal" stroke-linejoin="miter" font-size="12px" stroke-dashoffset="0" image-rendering="auto">
  <!--Generated by ySVG 2.5-->
  <defs id="genericDefs"/>
  <g>
    <defs id="defs1">
      <clipPath clipPathUnits="userSpaceOnUse" id="clipPath1">
        <path d="M0 0 L1304 0 L1304 585 L0 585 L0 0 Z"/>
      </clipPath>
      <clipPath clipPathUnits="userSpaceOnUse" id="clipPath2">
        <path d="M-511 -132 L793 -132 L793 453 L-511 453 L-511 -132 Z"/>
      </clipPath>
    </defs>
    <g fill="white" text-rendering="geometricPrecision" shape-rendering="geometricPrecision" transform="translate(511,132)" stroke="white">
      <rect x="-511" width="1304" height="585" y="-132" clip-path="url(#clipPath2)" stroke="none"/>
    </g>
    <g fill="silver" text-rendering="geometricPrecision" shape-rendering="geometricPrecision" transform="matrix(1,0,0,1,511,132)" stroke="silver">
      <ellipse rx="49.2016" ry="33.8416" clip-path="url(#clipPath2)" cx="425.7984" cy="295.1584" stroke="none"/>
    </g>
    <g text-rendering="geometricPrecision" stroke-miterlimit="1.45" shape-rendering="geometricPrecision" font-family="sans-serif" transform="matrix(1,0,0,1,511,132)" stroke-linecap="butt">
      <text x="392.4673" xml:space="preserve" y="292.5217" clip-path="url(#clipPath2)" stroke="none">AUTHOR-ID</text>
      <text x="396.7886" xml:space="preserve" y="307.2228" clip-path="url(#clipPath2)" stroke="none">  (PFA122)</text>
      <ellipse rx="49.2016" fill="none" ry="33.8416" clip-path="url(#clipPath2)" cx="425.7984" cy="295.1584"/>
    </g>
    <g fill="silver" text-rendering="geometricPrecision" shape-rendering="geometricPrecision" transform="matrix(1,0,0,1,511,132)" stroke="silver">
      <ellipse rx="49.2016" ry="36.2" clip-path="url(#clipPath2)" cx="98.1662" cy="170.7564" stroke="none"/>
    </g>
    <g text-rendering="geometricPrecision" stroke-miterlimit="1.45" shape-rendering="geometricPrecision" font-family="sans-serif" transform="matrix(1,0,0,1,511,132)" stroke-linecap="butt">
      <text x="74.1574" xml:space="preserve" y="175.4703" clip-path="url(#clipPath2)" stroke="none">Paper-ID</text>
      <ellipse rx="49.2016" fill="none" ry="36.2" clip-path="url(#clipPath2)" cx="98.1662" cy="170.7564"/>
    </g>
    <g fill="silver" text-rendering="geometricPrecision" shape-rendering="geometricPrecision" transform="matrix(1,0,0,1,511,132)" stroke="silver">
      <ellipse rx="49.2016" ry="33.8416" clip-path="url(#clipPath2)" cx="112.163" cy="-83.0052" stroke="none"/>
    </g>
    <g text-rendering="geometricPrecision" stroke-miterlimit="1.45" shape-rendering="geometricPrecision" font-family="sans-serif" transform="matrix(1,0,0,1,511,132)" stroke-linecap="butt">
      <text x="100.16" xml:space="preserve" y="-78.2913" clip-path="url(#clipPath2)" stroke="none">URL</text>
      <ellipse rx="49.2016" fill="none" ry="33.8416" clip-path="url(#clipPath2)" cx="112.163" cy="-83.0052"/>
    </g>
    <g fill="silver" text-rendering="geometricPrecision" shape-rendering="geometricPrecision" transform="matrix(1,0,0,1,511,132)" stroke="silver">
      <ellipse rx="103.7016" ry="54" clip-path="url(#clipPath2)" cx="-286.087" cy="194.0864" stroke="none"/>
    </g>
    <g text-rendering="geometricPrecision" stroke-miterlimit="1.45" shape-rendering="geometricPrecision" font-family="sans-serif" transform="matrix(1,0,0,1,511,132)" stroke-linecap="butt">
      <text x="-298.4239" xml:space="preserve" y="185.8367" clip-path="url(#clipPath2)" stroke="none">NEP</text>
      <text x="-382.6173" xml:space="preserve" y="200.5378" clip-path="url(#clipPath2)" stroke="none">(Classification de la nature de l'aide)</text>
      <ellipse rx="103.7016" fill="none" ry="54" clip-path="url(#clipPath2)" cx="-286.087" cy="194.0864"/>
    </g>
    <g fill="silver" text-rendering="geometricPrecision" shape-rendering="geometricPrecision" transform="matrix(1,0,0,1,511,132)" stroke="silver">
      <ellipse rx="49.2016" ry="33.8416" clip-path="url(#clipPath2)" cx="81.2995" cy="401.0409" stroke="none"/>
    </g>
    <g text-rendering="geometricPrecision" stroke-miterlimit="1.45" shape-rendering="geometricPrecision" font-family="sans-serif" transform="matrix(1,0,0,1,511,132)" stroke-linecap="butt">
      <text x="35.4646" xml:space="preserve" y="405.7547" clip-path="url(#clipPath2)" stroke="none">Date d'inscription</text>
      <ellipse rx="49.2016" fill="none" ry="33.8416" clip-path="url(#clipPath2)" cx="81.2995" cy="401.0409"/>
    </g>
    <g fill="silver" text-rendering="geometricPrecision" shape-rendering="geometricPrecision" transform="matrix(1,0,0,1,511,132)" stroke="silver">
      <ellipse rx="103.7016" ry="54" clip-path="url(#clipPath2)" cx="-391.4786" cy="383.7825" stroke="none"/>
    </g>
    <g text-rendering="geometricPrecision" stroke-miterlimit="1.45" shape-rendering="geometricPrecision" font-family="sans-serif" transform="matrix(1,0,0,1,511,132)" stroke-linecap="butt">
      <text x="-403.8155" xml:space="preserve" y="381.1458" clip-path="url(#clipPath2)" stroke="none">NEP</text>
      <text x="-488.0089" xml:space="preserve" y="395.8469" clip-path="url(#clipPath2)" stroke="none">(Classification de la nature de l'aide)</text>
      <ellipse rx="103.7016" fill="none" ry="54" clip-path="url(#clipPath2)" cx="-391.4786" cy="383.7825"/>
    </g>
    <g fill="silver" text-rendering="geometricPrecision" shape-rendering="geometricPrecision" transform="matrix(1,0,0,1,511,132)" stroke="silver">
      <ellipse rx="38.0687" ry="23.3886" clip-path="url(#clipPath2)" cx="739.3425" cy="63.5519" stroke="none"/>
    </g>
    <g text-rendering="geometricPrecision" stroke-miterlimit="1.45" shape-rendering="geometricPrecision" font-family="sans-serif" transform="matrix(1,0,0,1,511,132)" stroke-linecap="butt">
      <text x="721.6648" xml:space="preserve" y="60.9152" clip-path="url(#clipPath2)" stroke="none">Author</text>
      <text x="707.6667" xml:space="preserve" y="75.6164" clip-path="url(#clipPath2)" stroke="none">IDEAS URL</text>
      <ellipse rx="38.0687" fill="none" ry="23.3886" clip-path="url(#clipPath2)" cx="739.3425" cy="63.5519"/>
    </g>
    <g fill="silver" text-rendering="geometricPrecision" shape-rendering="geometricPrecision" transform="matrix(1,0,0,1,511,132)" stroke="silver">
      <ellipse rx="38.3308" ry="22.6022" clip-path="url(#clipPath2)" cx="711.5727" cy="261.9978" stroke="none"/>
    </g>
    <g text-rendering="geometricPrecision" stroke-miterlimit="1.45" shape-rendering="geometricPrecision" font-family="sans-serif" transform="matrix(1,0,0,1,511,132)" stroke-linecap="butt">
      <text x="693.895" xml:space="preserve" y="259.3611" clip-path="url(#clipPath2)" stroke="none">Author</text>
      <text x="685.563" xml:space="preserve" y="274.0622" clip-path="url(#clipPath2)" stroke="none">local URL</text>
      <ellipse rx="38.3308" fill="none" ry="22.6022" clip-path="url(#clipPath2)" cx="711.5727" cy="261.9978"/>
    </g>
    <g fill="silver" text-rendering="geometricPrecision" shape-rendering="geometricPrecision" transform="matrix(1,0,0,1,511,132)" stroke="silver">
      <ellipse rx="60.2198" ry="22.6022" clip-path="url(#clipPath2)" cx="653.6436" cy="360.5147" stroke="none"/>
    </g>
    <g text-rendering="geometricPrecision" stroke-miterlimit="1.45" shape-rendering="geometricPrecision" font-family="sans-serif" transform="matrix(1,0,0,1,511,132)" stroke-linecap="butt">
      <text x="606.2794" xml:space="preserve" y="365.2286" clip-path="url(#clipPath2)" stroke="none">Etienne Farvaque</text>
      <ellipse rx="60.2198" fill="none" ry="22.6022" clip-path="url(#clipPath2)" cx="653.6436" cy="360.5147"/>
      <path fill="none" d="M141.8887 187.3579 L375.2453 275.9634" clip-path="url(#clipPath2)"/>
      <path d="M382.7243 278.8032 L373.2806 269.8691 L374.3104 275.6084 L369.7309 279.2179 Z" clip-path="url(#clipPath2)" stroke="none"/>
      <text x="180.1575" xml:space="preserve" y="258.4451" clip-path="url(#clipPath2)" stroke="none">Dublinccore:creator</text>
      <path fill="none" d="M100.1612 134.5862 L109.8571 -41.2" clip-path="url(#clipPath2)"/>
      <path d="M110.2977 -49.1879 L104.6444 -37.4815 L109.802 -40.2015 L114.6292 -36.9307 Z" clip-path="url(#clipPath2)" stroke="none"/>
      <text x="103.2596" xml:space="preserve" y="40.0597" clip-path="url(#clipPath2)" stroke="none">Dublincore :</text>
      <text x="111.2606" xml:space="preserve" y="54.7609" clip-path="url(#clipPath2)" stroke="none">Source ?</text>
      <path fill="none" d="M49.1313 173.7336 L-175.0979 187.3477" clip-path="url(#clipPath2)"/>
      <path d="M-183.0832 187.8326 L-170.8023 192.0961 L-174.0998 187.2871 L-171.4083 182.1145 Z" clip-path="url(#clipPath2)" stroke="none"/>
      <text x="-131.0698" xml:space="preserve" y="155.4256" clip-path="url(#clipPath2)" stroke="none">Dublicore : classification</text>
      <path fill="none" d="M376.5968 295.1584 L132.4592 382.6969" clip-path="url(#clipPath2)"/>
      <path d="M124.9287 385.3971 L137.9121 386.0534 L133.4005 382.3594 L134.5369 376.6403 Z" clip-path="url(#clipPath2)" stroke="none"/>
      <text x="163.6306" xml:space="preserve" y="317.8773" clip-path="url(#clipPath2)" stroke="none">Permet de voir que </text>
      <text x="149.8054" xml:space="preserve" y="332.5785" clip-path="url(#clipPath2)" stroke="none">l'auteur est dans Authors</text>
      <text x="167.4804" xml:space="preserve" y="391.0503" clip-path="url(#clipPath2)" stroke="none">FOAF : lastlogin</text>
      <path fill="none" d="M55.8148 189.1819 L-304.5616 345.9682" clip-path="url(#clipPath2)"/>
      <path d="M-311.8974 349.1597 L-298.899 348.9573 L-303.6447 345.5692 L-302.8884 339.7875 Z" clip-path="url(#clipPath2)" stroke="none"/>
      <text x="-230.4348" xml:space="preserve" y="256.2639" clip-path="url(#clipPath2)" stroke="none">Dublincore : classification</text>
      <path fill="none" d="M459.3275 270.3914 L708.5643 86.2869" clip-path="url(#clipPath2)"/>
      <path d="M714.9991 81.5337 L702.3762 84.6418 L707.76 86.8811 L708.3177 92.6853 Z" clip-path="url(#clipPath2)" stroke="none"/>
      <text x="584.7486" xml:space="preserve" y="191.6826" clip-path="url(#clipPath2)" stroke="none">FOAF : URL ?</text>
      <path fill="none" d="M474.3144 289.5287 L666.0165 267.284" clip-path="url(#clipPath2)"/>
      <path d="M673.9632 266.3619 L661.4669 262.7784 L665.0232 267.3993 L662.6195 272.7118 Z" clip-path="url(#clipPath2)" stroke="none"/>
      <text x="536.1141" xml:space="preserve" y="312.8625" clip-path="url(#clipPath2)" stroke="none">FOAF : URL ?</text>
      <path fill="none" d="M471.2093 308.1843 L598.1072 344.5844" clip-path="url(#clipPath2)"/>
      <path d="M605.7971 346.7902 L595.6409 338.6753 L597.1459 344.3086 L592.8836 348.2876 Z" clip-path="url(#clipPath2)" stroke="none"/>
      <text x="498.2031" xml:space="preserve" y="362.18" clip-path="url(#clipPath2)" stroke="none">FOAF : name</text>
    </g>
  </g>
</svg>
